<svg xmlns="http://www.w3.org/2000/svg" fill="none" viewBox="0 0 16 16" id="Brackets-Square-Duotone--Streamline-Phosphor" height="16" width="16">
  <desc>
    Brackets Square Duotone Streamline Icon: https://streamlinehq.com
  </desc>
  <g id="brackets-square-duotone">
    <path id="Vector" fill="#c4c4c3" d="M15.18666875 0.81333125v14.3733375H0.81333125V0.81333125h14.3733375Z" stroke-width="0.0625"></path>
    <path id="Vector_2" fill="#000000" d="M1.46666875 1.46666875v13.0666625H4.08c0.17326875 0 0.33945625 0.06885 0.46198125 0.19135 0.1225125 0.1225 0.19135 0.2886875 0.19135 0.4619875s-0.0688375 0.3394875 -0.19135 0.4619875c-0.122525 0.1225 -0.28870625 0.19134375 -0.46198125 0.19134375H0.81333125c-0.17326875 0 -0.33945625 -0.06884375 -0.461975 -0.19134375 -0.12251875 -0.1225 -0.19135625 -0.28869375 -0.19135625 -0.4619875V0.81333125c0 -0.17326875 0.0688375 -0.33945625 0.19135 -0.461975C0.473875 0.2288375 0.6400625 0.16 0.81333125 0.16H4.08c0.173275 0 0.33945625 0.0688375 0.46198125 0.19135 0.1225125 0.122525 0.19135 0.2887125 0.19135 0.46198125s-0.0688375 0.33945625 -0.19135 0.46198125c-0.122525 0.12251875 -0.28870625 0.19135625 -0.46198125 0.19135625H1.46666875ZM15.18666875 0.16H11.92c-0.1733 0 -0.3394875 0.0688375 -0.4619875 0.19135 -0.1225 0.122525 -0.19134375 0.2887125 -0.19134375 0.46198125s0.06884375 0.33945625 0.19134375 0.46198125c0.1225 0.12251875 0.28869375 0.19135625 0.4619875 0.19135625h2.61333125v13.0666625H11.92c-0.1733 0 -0.3394875 0.06885 -0.4619875 0.19135s-0.19134375 0.2886875 -0.19134375 0.4619875 0.06884375 0.3394875 0.19134375 0.4619875 0.28869375 0.19134375 0.4619875 0.19134375h3.26666875c0.17329375 0 0.3394875 -0.06884375 0.4619875 -0.19134375s0.19134375 -0.28869375 0.19134375 -0.4619875V0.81333125c0 -0.17326875 -0.06884375 -0.33945625 -0.19134375 -0.461975 -0.1225 -0.12251875 -0.28869375 -0.19135625 -0.4619875 -0.19135625Z" stroke-width="0.0625"></path>
  </g>
</svg>